<svg width="16" height="16" viewBox="0 0 16 16" fill="none" xmlns="http://www.w3.org/2000/svg" class="size-4"><path d="M4.89142 3.42871C4.0835 3.42871 3.42856 4.16552 3.42856 5.07443V12.0687C3.42856 12.9776 4.0835 13.7144 4.89142 13.7144H11.1086C11.9165 13.7144 12.5714 12.9776 12.5714 12.0687V5.07443C12.5714 4.16552 11.9165 3.42871 11.1086 3.42871" stroke="white" stroke-width="1.25" stroke-linecap="round" stroke-linejoin="round"></path><path d="M9.52382 4.57136H6.4762C6.05541 4.57136 5.71429 4.27897 5.71429 3.9183V2.93871C5.71429 2.57803 6.05541 2.28564 6.4762 2.28564H9.52382C9.94462 2.28564 10.2857 2.57803 10.2857 2.93871V3.9183C10.2857 4.27897 9.94462 4.57136 9.52382 4.57136Z" stroke="white" stroke-width="1.25" stroke-linecap="round" stroke-linejoin="round"></path><path d="M5.71429 8H10.2857" stroke="white" stroke-width="1.25" stroke-linecap="round" stroke-linejoin="round"></path><path d="M5.71429 10.2856H10.2857" stroke="white" stroke-width="1.25" stroke-linecap="round" stroke-linejoin="round"></path></svg>