  <svg className="w-6 h-6 text-white" viewBox="0 0 24 24" fill="none" xmlns="http://www.w3.org/2000/svg">
    <path 
      fillRule="evenodd" 
      clipRule="evenodd" 
      d="M6.67572 22.7344C10.2164 23.0885 13.7836 23.0885 17.3243 22.7344C20.1854 22.4483 22.4483 20.1854 22.7344 17.3243C23.0885 13.7836 23.0885 10.2164 22.7344 6.67572C22.4483 3.81463 20.1854 1.55166 17.3243 1.26555C13.7836 0.911483 10.2164 0.911483 6.67571 1.26555C3.81463 1.55166 1.55166 3.81463 1.26555 6.67571C0.911483 10.2164 0.911483 13.7836 1.26555 17.3243C1.55166 20.1854 3.81463 22.4483 6.67572 22.7344ZM17.6108 6L13.1428 11.0818L18 18H14.4264L11.1544 13.3403L7.0584 18H6L10.6852 12.6716L6 6H9.5736L12.6712 10.4115L16.5524 6H17.6108ZM9.0664 6.78095H7.4404L14.9252 17.2574H16.5516L9.0664 6.78095Z" 
      fill="white"
    />
  </svg>